<?xml version="1.0" encoding="utf-8"?>
<!-- Generator: Adobe Illustrator 25.0.1, SVG Export Plug-In . SVG Version: 6.00 Build 0)  -->
<svg version="1.1" id="Layer_1" xmlns="http://www.w3.org/2000/svg" xmlns:xlink="http://www.w3.org/1999/xlink" x="0px" y="0px"
	 viewBox="0 0 1361.6 1361.6" style="enable-background:new 0 0 1361.6 1361.6;" xml:space="preserve">
<style type="text/css">
	.st0{fill:#FFE027;}
	.st1{fill:#CE8D51;}
	.st2{fill:#A35D24;}
	.st3{fill:#FFFFFF;}
	.st4{fill:#EAAA75;}
	.st5{opacity:0.3;}
</style>
<g>
	<path class="st0" d="M692.8,1361.6c-2.5,0-5.2,0-24.6-10.6c-12.6-6.9-29.4-16.8-48.3-28.5c-34.3-21.1-91.6-57.8-170.3-113.1
		c-110.9-77.9-136.9-140.6-142.8-168.2c-7.4,2-16.7,3-27.8,3c-31,0-66.9-7.6-68.4-7.9l-37.8-8l34.9-10.7c2.2-2.7,9.8-14.5,21.8-55.4
		c8.5-29.1-9.7-84-27.2-137.1c-15.7-47.4-32-96.4-33.3-136.2c-1.2-36.8,10.7-73.7,34.5-106.6c5.4-7.5,10.9-14.1,15.9-19.5
		c-23.2-1.5-36.6-10.1-37.2-10.5l-10.3-6.7l8.7-8.7c0.5-0.5,49.8-50.1,83.2-100.2c25.2-37.9,58.6-49.5,77.7-53
		c-4.2-12.8-3.8-26.9,1.2-41.5c5-14.5,13-24.6,13.3-25l5.2-6.5l7.3,3.9c0.2,0.1,20.8,11,39.6,16.4c0.2,0,0.3,0.1,0.5,0.1
		c5.7,0,18.3-13.1,29.4-24.7c2.9-3,5.9-6.1,9-9.3L439,97.7c-18-4-31.4-20-31.4-39.2c0-22.1,18-40.1,40.1-40.1s40.1,18,40.1,40.1
		c0,8.8-2.9,17.2-8.1,24.1l134,131.4l43.1-139.7c-11.7-7.2-19.1-19.9-19.1-34.2C637.8,18,655.8,0,678,0c22.1,0,40.1,18,40.1,40.1
		c0,13.2-6.6,25.5-17.1,32.9l54.7,146.1L863.9,79.6c-3.9-6.3-6-13.5-6-21c0-22.1,18-40.1,40.1-40.1c22.1,0,40.1,18,40.1,40.1
		c0,19.2-13.6,35.3-31.6,39.2l-5.9,184.8c22,17.7,40.7,37,49.9,46.5c1.7,1.8,3.2,3.3,4.2,4.3c0.6,0.6,1,0.8,1.2,1
		c1.6-0.6,5.1-4.4,7.2-8.4l5-9.8l9.3,5.9c27.4,17.4,31.6,51,32,67.3c24.4,4.9,48.4,16,71.3,33c20.2,15,39.6,34.6,57.8,58.3
		c30.7,40.1,47,77.7,47.7,79.3l6.5,15.1l-44.2-3.2c11.5,13.3,20.7,30.7,27.4,51.8c11.2,35.5,11.5,69,11,81.7
		c-1.1,32.6-31.7,108.4-54.1,163.7c-7.9,19.5-14.7,36.3-18.1,46.1c-9.4,27.2,13,81.8,22.4,100.5l4.8,9.6l-9.9,4.2
		c-20.8,8.8-41.7,13.2-62.1,13.2c0,0,0,0,0,0c-9.6,0-17.6-1-23.6-2.2c-6.8,39.2-30.7,80.4-71,122.6c-32.6,34-63.6,55.5-64.9,56.5
		l-14-13.7l6-9.2c-21.8,17.6-48.4,39.2-75,60.6c-127.1,102.5-128.8,103-131.5,103.9C695.1,1361.4,693.9,1361.6,692.8,1361.6z"/>
	<g>
		<g>
			<circle cx="678" cy="40.1" r="30.1"/>
			<ellipse transform="matrix(0.1602 -0.9871 0.9871 0.1602 696.4648 935.7125)" cx="898.1" cy="58.6" rx="30.1" ry="30.1"/>
			<ellipse transform="matrix(0.1469 -0.9892 0.9892 0.1469 324.0224 492.8128)" cx="447.7" cy="58.6" rx="30.1" ry="30.1"/>
			<polygon points="457.4,311.1 447.7,65.3 618.5,232.7 678,40.1 752.6,239.4 898.1,51.9 890.6,287.3 			"/>
			<g>
				<path d="M246.2,551.1c0,0-70.2,53-67.3,137.5c2.9,84.5,77.3,217.7,60.1,276.4c-17.2,58.7-26.5,61.6-26.5,61.6s81,17.2,102.4,0
					c0,0-4.3,73,140.3,174.7C599.9,1302.9,688.7,1353,693,1351.6c4.3-1.4,253.5-203.4,253.5-203.4l-41.5,63
					c0,0,124.6-85.9,133.2-183.3c0,0,37.2,14.6,90.2-7.7c0,0-35.8-71-22.9-108.3c12.9-37.2,70.2-164.5,71.6-206.9
					c1.4-42.3-10-118.2-58.7-145.4l58.8,4.3c0,0-64.6-150.4-177.7-166.1c0,0,4.3-47.3-27.2-67.3c0,0-11.5,22.9-24.3,10
					C935,327.6,870,256,820.1,253.2c-49.8-2.9-110.6,41.5-155.4,22.9c-44.8-18.6-110.9-45.8-162.3-12.9
					c-51.4,32.9-77.2,83.1-97.3,77.3c-20-5.7-41.5-17.2-41.5-17.2s-28.6,35.8-7.2,68.7c0,0-50.1-1.4-84.5,50.1
					c-34.4,51.6-84.5,101.7-84.5,101.7S209.1,558,246.2,551.1z"/>
				<path class="st1" d="M1079.1,937.6c22.9,68.7,22.9,68.7,22.9,68.7s-68,11.4-91.3-22.7c2.4,3.7,28.4,47.4-40.3,110.9
					c-52.3,48.4-184.1,145.1-251.9,194.1c-2,1.5-4,2.9-5.9,4.2c-21.9,15.8-35.8,25.6-35.8,25.6s-221.7-157.5-293.5-224
					c-68.7-63.5-42.7-107.2-40.3-110.9c-23.3,34.1-91.3,22.7-91.3,22.7s0,0,22.9-68.7c22.9-68.7-20-183.9-20-183.9l5.7,122.1
					c0,0-85.9-167.3-51.6-238.9C243.3,565.3,320.6,515,320.6,515l-94.5,9.5c0,0,43-42.4,68.7-76.8c25.8-34.4,96.3-43,96.3-43
					c-35.5-8.6-7.7-45.8-7.7-45.8c31.3,31.5,117.6-114.6,200.5-85.9c8.8,3,16.6,6.7,23.6,10.7c28.6,10.1,81.3,20.3,147.3-4.5
					c4.7-2.3,9.7-4.3,15.1-6.2c82.9-28.6,169.2,117.4,200.5,85.9c0,0,27.7,37.2-7.7,45.8c0,0,70.5,8.6,96.3,43
					c25.8,34.4,68.7,76.8,68.7,76.8l-94.5-9.5c0,0,77.3,50.2,111.7,121.8c34.4,71.6-51.6,238.9-51.6,238.9l5.7-122.1
					C1099.1,753.6,1056.2,868.9,1079.1,937.6z"/>
				<path class="st2" d="M274.8,937.6c-22.9,68.7-22.9,68.7-22.9,68.7s68,11.4,91.3-22.7c-2.4,3.7-28.4,47.4,40.3,110.9
					c52.3,48.4,184.1,145.1,251.9,194.1l-125.5-152.3l91.5,87.8l-43.6-109.4l85.2,107.5l-41.6-107.5l62.5,96l61.1-96l-8,48.3
					c0,0,93.2-76.4,110.7-108.8l-11.1,47.7c0,0,56.1-58.4,57.6-110.4c1.6-51.9,1.3-141.5,1.3-141.5l-83.2-54.2l-99.5-274
					c0,0-25.2-69.1-116.9-94c0,0,42.3-8.9,101,40.1c-0.4-1-26.7-65.2-91.3-97.4l57.2,11.5c0,0-46.3-85.9-109.1-68.7
					c-62.8,17.2-128.9,99.1-150.3,45.7c0,0-27.7,37.2,7.7,45.8c0,0-70.5,8.6-96.3,43c-25.8,34.4-68.7,76.8-68.7,76.8l94.5-9.5
					c0,0-77.3,50.2-111.7,121.8c-34.4,71.6,51.6,238.9,51.6,238.9l-5.7-122.1C254.8,753.6,297.7,868.9,274.8,937.6z"/>
				<path d="M1079.1,937.6c22.9,68.7,22.9,68.7,22.9,68.7s-68,11.4-91.3-22.7c2.4,3.7,28.4,47.4-40.3,110.9
					c-52.3,48.4-184.1,145.1-251.9,194.1l125.5-152.3l-91.5,87.8l43.6-109.4L711,1222.2l41.6-107.5l-62.5,96l-61.1-96l8,48.3
					c0,0-93.2-76.4-110.7-108.8l11.1,47.7c0,0-56.1-58.4-57.6-110.4c-1.6-51.9-1.3-141.5-1.3-141.5l83.2-54.2l99.5-274
					c0,0,25.2-69.1,116.9-94c0,0-42.3-8.9-101,40.1c0.4-1,26.7-65.2,91.3-97.4L711,382.1c0,0,46.3-85.9,109.1-68.7
					c62.8,17.2,128.9,99.1,150.3,45.7c0,0,27.7,37.2-7.7,45.8c0,0,70.5,8.6,96.3,43c25.8,34.4,68.7,76.8,68.7,76.8l-94.5-9.5
					c0,0,77.3,50.2,111.7,121.8c34.4,71.6-51.6,238.9-51.6,238.9l5.7-122.1C1099.1,753.6,1056.2,868.9,1079.1,937.6z"/>
				<g>
					<polygon class="st1" points="391.2,679.6 424.2,744.5 491.3,825.4 492.5,850.1 483.7,871.5 516.4,1004.5 649.3,925.7 
						649.3,831.2 661.5,801 661.5,521.8 456,498.9 					"/>
					<polygon class="st2" points="637.1,840.8 569.9,828.5 532.4,857 584.7,850.1 537.2,883.2 576,883.2 537.2,925.7 561.6,909.5 
						549.6,938.1 593.5,925.7 564.8,949.6 637.1,917 526.3,991.6 492.5,850.1 561.6,795.9 578.3,798.9 					"/>
					<polygon class="st2" points="431.1,581.7 418.8,669.2 431.1,651.8 436,711.8 482.7,776.6 468.4,744.5 514.8,788.2 554.3,776.6 
						516.4,803.5 576,776.6 507.1,828.5 478.4,809.9 383.5,679.6 					"/>
					<polygon points="561.6,639 605,801 661.5,801 661.5,826.4 661.5,850.1 580.4,819.2 					"/>
					<path d="M561.6,639l-96.9-15c0,0,20.9,84.6,100,45.2"/>
					<path class="st3" d="M478.4,632.6l75.9,14.3c0,0-5.3,17.2-19,21C521.7,671.7,500.5,668.9,478.4,632.6z"/>
					<polygon points="576,776.6 478.4,850.1 516.4,1004.5 661.5,925.7 661.5,904.2 530,972.9 506.1,859.8 502.7,890.5 492.5,850.1 
						528.9,825.4 516.4,850.1 561.6,821.2 569.9,796.8 572.5,818.8 578.3,798.9 					"/>
					<path d="M507.1,828.5c0,0-102.3-93.6-102.3-159.3L456,498.9l205.5,22.9l-212.2-47.3l-64.9,184.7l-41-8.4l37.6,37.1l111.6,162.1
						L507.1,828.5z"/>
					<polygon points="661.5,850.1 661.5,925.7 637.1,925.7 637.1,840.8 					"/>
					<polygon class="st1" points="931.4,679.6 898.4,744.5 831.2,825.4 830.1,850.1 838.8,871.5 806.2,1004.5 673.3,925.7 
						673.3,831.2 661.1,801 661.1,521.8 866.6,498.9 					"/>
					<polygon class="st2" points="742.1,819.2 694.7,857.9 694.7,899.9 738.6,925.7 711,920 773.9,947.6 788.3,883.4 788.3,938.1 
						796.2,864.6 760.9,834 793.4,850.1 768.2,802.5 844.1,850.1 796.2,991.6 664.7,915.2 664.7,835 					"/>
					<polygon class="st2" points="760.9,639 844.1,586.3 780.1,566.2 837.4,566.2 796.2,546.2 852.2,515.2 757.8,534.3 790.2,515.2 
						691.8,533.3 711,521.8 661.1,521.8 871.3,489.4 925.7,646.9 922.9,698.5 831.2,825.4 815.4,828.5 746.6,776.6 					"/>
					<polygon points="760.9,639 717.5,801 661.1,801 661.1,826.4 661.1,850.1 742.1,819.2 					"/>
					<path d="M760.9,639l96.9-15c0,0-20.9,84.6-100,45.2L760.9,639z"/>
					<path class="st3" d="M844.1,632.6l-75.9,14.3c0,0,5.3,17.2,19,21C800.9,671.7,822.1,668.9,844.1,632.6z"/>
					<polygon points="746.6,776.6 844.1,850.1 806.2,1004.5 661.1,925.7 661.1,904.2 792.5,972.9 816.4,859.8 819.8,890.5 
						830.1,850.1 793.6,825.4 806.2,850.1 760.9,821.2 752.6,796.8 750,818.8 744.2,798.9 					"/>
					<path d="M815.4,828.5c0,0,102.3-93.6,102.3-159.3l-51.2-170.3l-205.5,22.9l212.2-47.3l64.9,184.7l41-8.4L941.6,688L830.1,850.1
						L815.4,828.5z"/>
					<polygon points="652.5,850.1 652.5,925.7 676.9,925.7 676.9,840.8 					"/>
					<polygon class="st4" points="583.9,669.2 611.5,786.8 711,786.8 724.3,720.9 698.5,758.2 698.5,705.1 682.8,744.5 676.9,686.5 
						661.1,738.1 637.1,679.6 637.1,751.7 611.5,720.9 618.3,758.2 					"/>
					<path d="M516.4,1004.5c0,0,43.7,74,137.7,100.7l-17.1-26.7l39.9,36.3l57.8-43.9l-23.8,34.4c0,0,67.2-25.8,95.2-100.7
						l-145.1-78.8L516.4,1004.5z"/>
					<path class="st2" d="M526.3,991.6l134.8-65.9l107.1,65.9L711,981.1l43.4,39.1l-61.6,48.7l9.5-38.2l-37.6,38.2l-53.2-48.7
						l8.7,48.7C620.2,1068.9,581.3,1063.2,526.3,991.6z"/>
					<polygon class="st1" points="569.9,972.7 661.1,925.7 724.3,964.5 676.9,958.2 692.8,997.3 661.5,1038.3 664.7,997.3 
						647.1,1020.2 597.3,991.6 626,963.9 					"/>
				</g>
				<path class="st1" d="M630,489.4l-173.3-47.2l58.1,32.4l-85.3-22.4l-65.9,140.3l19.8-70.2l-85.7,48.7l70.2-72.2h-83.1
					c0,0,65.9-63.9,118.9-73.9c53-10,111.1,0,111.1,0l-57.4-24.3C457.4,400.7,526.9,380.5,630,489.4z"/>
			</g>
			<path class="st0" d="M464.8,107.1l13.6,162.2c0,0,41.7-38.3,97.6-30c0,0-11.5-14.7-55.9-8.4l34.2-23.4l-61.9,20.1l45.7-31.8
				l-45.7,16.7l27.9-24.4l-27.9,7.6l22.3-36.8l-22.3,16.6V144L464.8,107.1z"/>
			<path class="st0" d="M630,252l47-181.7l46.2,126.4c0,0-66.6,13.4-64.7,13.4s68.9,10.9,68.9,10.9l-74.5,5.9l74.5,7.5l-73.7,0.8
				l46.9,5.9l-51.1,1.7l51.9,9.2H630z"/>
			<polygon class="st0" points="770.9,241.9 883.1,88.7 827,220.1 801.9,223.5 845.4,241.9 801,238.6 875.5,262 			"/>
		</g>
		<path class="st5" d="M757.8,669.2l35.7,96.6l56.2-48.3l-29.4,59.1c0,0,78.5-88.9,78-107.4l-28.5,21.7l17.9-39.1l-21.2-79.2
			l25.7,46.9l-16.5-102.7l62.8,142.5v117.2L873,860.6l-41.3-19.8l-96-54L757.8,669.2z"/>
		<polygon class="st5" points="724.3,964.5 740.7,982 711,981.1 725.9,1020.2 708.4,1049.3 711,1013.5 664.7,1058.2 611.5,1020.2 
			667.1,1105.8 800.5,1044.2 786.5,985.6 		"/>
	</g>
	<path d="M457.4,587.7L600.6,639c0,0-27,60.7-74.3,66.1C479,710.5,431.4,663.6,457.4,587.7z"/>
	<path d="M435.4,557.5c0,0,287.2,126.1,315.5,148V728c0,0-173.7-100.1-333.4-140.3L435.4,557.5z"/>
	<path d="M750.9,705.5c0,0,55.1,40.6,156.7,46.2l-9.5,20.2c0,0-73.2-2.4-147.2-43.9V705.5z"/>
	<path class="st5" d="M423.3,607.8l14.4-5.6l10,5.6c0,0-19.2,117.8,84.8,107.1c43.4-4.5,68.1-45.7,68.1-45.7L750.9,728
		c0,0,54.8,53.3,129.7,48.6l2.4-13.6l-206.1-76.4l-107-58.5l-122.2-46.3h-16.6L423.3,607.8z"/>
	<path class="st0" d="M482.7,593.6l103.8,44.9l-92.1-32.1l83.7,50.4l-90.2-41.2l74.6,49.2L482.7,630l40.3,27.8l-47.2-19.2L543,681
		l-67.2-24.1l30.3,24.1l-30.3-12.7c0,0-24.3-23.3-2.9-80.7V619L482.7,593.6z"/>
	<polygon points="768.2,637.9 731.5,642.8 716.5,624 724.3,658.9 782.6,644.2 	"/>
	<polygon points="583.9,624 620.9,632.6 630,616.7 630,646.6 	"/>
	<polygon class="st2" points="724.3,658.9 743.7,662.2 744.3,701.1 757.8,650.5 	"/>
</g>
</svg>
